<?xml version="1.0" encoding="UTF-8"?>
<svg xmlns="http://www.w3.org/2000/svg" width="750" height="196" viewBox="0 0 750 196">
  <defs>
    <linearGradient id="stripGradient2x" x1="0%" y1="0%" x2="100%" y2="0%">
      <stop offset="0%" stop-color="#002A8F"/>
      <stop offset="50%" stop-color="#5b6bb5"/>
      <stop offset="100%" stop-color="#CE1126"/>
    </linearGradient>
  </defs>

  <!-- Background with gradient -->
  <rect width="750" height="196" fill="url(#stripGradient2x)"/>

  <!-- Overlay pattern for texture -->
  <rect width="750" height="196" fill="rgba(0,0,0,0.1)" rx="8"/>

  <!-- Festival title -->
  <text x="40" y="70" font-family="Arial, sans-serif" font-size="48" font-weight="bold" fill="#ffffff">A LO CUBANO</text>
  <text x="40" y="110" font-family="Arial, sans-serif" font-size="28" fill="#ffffff" opacity="0.9">BOULDER FEST</text>
  <text x="40" y="150" font-family="Arial, sans-serif" font-size="22" fill="#ffffff" opacity="0.8">Cuban Salsa Festival • May 15-17, 2026</text>

  <!-- Decorative salsa elements -->
  <circle cx="640" cy="60" r="24" fill="rgba(255,255,255,0.2)"/>
  <path d="M 628 60 Q 640 48 652 60 Q 640 72 628 60" fill="rgba(255,255,255,0.6)"/>

  <circle cx="680" cy="110" r="16" fill="rgba(255,255,255,0.15)"/>
  <path d="M 672 110 Q 680 102 688 110 Q 680 118 672 110" fill="rgba(255,255,255,0.4)"/>

  <circle cx="620" cy="140" r="10" fill="rgba(255,255,255,0.1)"/>
  <path d="M 616 140 Q 620 136 624 140 Q 620 144 616 140" fill="rgba(255,255,255,0.3)"/>

  <!-- Cuban flag accent -->
  <rect x="0" y="0" width="750" height="8" fill="#CE1126"/>
  <rect x="0" y="188" width="750" height="8" fill="#002A8F"/>
</svg>